<mxfile host="app.diagrams.net" agent="Mozilla/5.0 (X11; Linux x86_64; rv:137.0) Gecko/20100101 Firefox/137.0" version="26.2.12">
  <diagram name="Pagina-1" id="BPavdeduB72e0fLUwRKr">
    <mxGraphModel dx="2043" dy="460" grid="1" gridSize="10" guides="1" tooltips="1" connect="1" arrows="1" fold="1" page="1" pageScale="1" pageWidth="1169" pageHeight="827" math="0" shadow="0">
      <root>
        <mxCell id="0" />
        <mxCell id="1" parent="0" />
        <mxCell id="Yd3ec5MEqcawKA09kIlU-3" value="EVENTO" style="whiteSpace=wrap;html=1;align=center;" parent="1" vertex="1">
          <mxGeometry x="415" y="345" width="150" height="70" as="geometry" />
        </mxCell>
        <mxCell id="Yd3ec5MEqcawKA09kIlU-7" value="" style="endArrow=none;html=1;rounded=0;entryX=0.7;entryY=0.009;entryDx=0;entryDy=0;entryPerimeter=0;" parent="1" source="Yd3ec5MEqcawKA09kIlU-8" target="Yd3ec5MEqcawKA09kIlU-3" edge="1">
          <mxGeometry width="50" height="50" relative="1" as="geometry">
            <mxPoint x="519.66" y="435" as="sourcePoint" />
            <mxPoint x="519.66" y="415" as="targetPoint" />
            <Array as="points" />
          </mxGeometry>
        </mxCell>
        <mxCell id="Yd3ec5MEqcawKA09kIlU-8" value="" style="ellipse;whiteSpace=wrap;html=1;aspect=fixed;" parent="1" vertex="1">
          <mxGeometry x="515" y="317.5" width="10" height="10" as="geometry" />
        </mxCell>
        <mxCell id="Yd3ec5MEqcawKA09kIlU-9" value="Data" style="text;html=1;align=center;verticalAlign=middle;whiteSpace=wrap;rounded=0;" parent="1" vertex="1">
          <mxGeometry x="490" y="290" width="60" height="30" as="geometry" />
        </mxCell>
        <mxCell id="Yd3ec5MEqcawKA09kIlU-10" value="" style="endArrow=none;html=1;rounded=0;" parent="1" edge="1">
          <mxGeometry width="50" height="50" relative="1" as="geometry">
            <mxPoint x="560" y="345" as="sourcePoint" />
            <mxPoint x="560" y="325" as="targetPoint" />
            <Array as="points">
              <mxPoint x="560" y="335" />
            </Array>
          </mxGeometry>
        </mxCell>
        <mxCell id="Yd3ec5MEqcawKA09kIlU-11" value="" style="ellipse;whiteSpace=wrap;html=1;aspect=fixed;" parent="1" vertex="1">
          <mxGeometry x="555" y="317.5" width="10" height="10" as="geometry" />
        </mxCell>
        <mxCell id="Yd3ec5MEqcawKA09kIlU-12" value="Titolo" style="text;html=1;align=center;verticalAlign=middle;whiteSpace=wrap;rounded=0;" parent="1" vertex="1">
          <mxGeometry x="530" y="290" width="60" height="30" as="geometry" />
        </mxCell>
        <mxCell id="Yd3ec5MEqcawKA09kIlU-13" value="CATEGORIA" style="rounded=0;whiteSpace=wrap;html=1;" parent="1" vertex="1">
          <mxGeometry x="265" y="130" width="170" height="70" as="geometry" />
        </mxCell>
        <mxCell id="Yd3ec5MEqcawKA09kIlU-14" value="" style="endArrow=none;html=1;rounded=0;" parent="1" edge="1">
          <mxGeometry width="50" height="50" relative="1" as="geometry">
            <mxPoint x="279.65999999999997" y="220" as="sourcePoint" />
            <mxPoint x="279.65999999999997" y="200" as="targetPoint" />
            <Array as="points">
              <mxPoint x="279.65999999999997" y="210" />
            </Array>
          </mxGeometry>
        </mxCell>
        <mxCell id="Yd3ec5MEqcawKA09kIlU-15" value="" style="ellipse;whiteSpace=wrap;html=1;aspect=fixed;gradientColor=none;fillColor=#000000;" parent="1" vertex="1">
          <mxGeometry x="275" y="220" width="10" height="10" as="geometry" />
        </mxCell>
        <mxCell id="Yd3ec5MEqcawKA09kIlU-16" value="CodCategoria" style="text;html=1;align=center;verticalAlign=middle;whiteSpace=wrap;rounded=0;" parent="1" vertex="1">
          <mxGeometry x="240" y="230" width="60" height="30" as="geometry" />
        </mxCell>
        <mxCell id="Yd3ec5MEqcawKA09kIlU-17" value="" style="endArrow=none;html=1;rounded=0;" parent="1" edge="1">
          <mxGeometry width="50" height="50" relative="1" as="geometry">
            <mxPoint x="344.65999999999997" y="220" as="sourcePoint" />
            <mxPoint x="344.65999999999997" y="200" as="targetPoint" />
            <Array as="points">
              <mxPoint x="344.65999999999997" y="210" />
            </Array>
          </mxGeometry>
        </mxCell>
        <mxCell id="Yd3ec5MEqcawKA09kIlU-18" value="" style="ellipse;whiteSpace=wrap;html=1;aspect=fixed;" parent="1" vertex="1">
          <mxGeometry x="340" y="220" width="10" height="10" as="geometry" />
        </mxCell>
        <mxCell id="Yd3ec5MEqcawKA09kIlU-19" value="NomeCategoria" style="text;html=1;align=center;verticalAlign=middle;whiteSpace=wrap;rounded=0;" parent="1" vertex="1">
          <mxGeometry x="330" y="230" width="60" height="30" as="geometry" />
        </mxCell>
        <mxCell id="Yd3ec5MEqcawKA09kIlU-20" value="UTENTE" style="rounded=0;whiteSpace=wrap;html=1;" parent="1" vertex="1">
          <mxGeometry x="590" y="135" width="160" height="70" as="geometry" />
        </mxCell>
        <mxCell id="Yd3ec5MEqcawKA09kIlU-21" value="" style="endArrow=none;html=1;rounded=0;" parent="1" edge="1">
          <mxGeometry width="50" height="50" relative="1" as="geometry">
            <mxPoint x="475" y="345" as="sourcePoint" />
            <mxPoint x="475" y="325" as="targetPoint" />
            <Array as="points">
              <mxPoint x="475" y="335" />
              <mxPoint x="475" y="330" />
            </Array>
          </mxGeometry>
        </mxCell>
        <mxCell id="Yd3ec5MEqcawKA09kIlU-22" value="" style="ellipse;whiteSpace=wrap;html=1;aspect=fixed;gradientColor=none;fillColor=#000000;" parent="1" vertex="1">
          <mxGeometry x="470" y="317.5" width="10" height="10" as="geometry" />
        </mxCell>
        <mxCell id="Yd3ec5MEqcawKA09kIlU-24" value="" style="ellipse;whiteSpace=wrap;html=1;aspect=fixed;" parent="1" vertex="1">
          <mxGeometry x="360" y="390" width="10" height="10" as="geometry" />
        </mxCell>
        <mxCell id="Yd3ec5MEqcawKA09kIlU-26" value="" style="endArrow=none;html=1;rounded=0;entryX=0;entryY=0.562;entryDx=0;entryDy=0;entryPerimeter=0;exitX=1;exitY=0.5;exitDx=0;exitDy=0;" parent="1" source="Yd3ec5MEqcawKA09kIlU-24" edge="1">
          <mxGeometry width="50" height="50" relative="1" as="geometry">
            <mxPoint x="380" y="395.33000000000004" as="sourcePoint" />
            <mxPoint x="415" y="394.66999999999996" as="targetPoint" />
          </mxGeometry>
        </mxCell>
        <mxCell id="Yd3ec5MEqcawKA09kIlU-27" value="Descrizione" style="text;html=1;align=center;verticalAlign=middle;whiteSpace=wrap;rounded=0;" parent="1" vertex="1">
          <mxGeometry x="350" y="390" width="60" height="30" as="geometry" />
        </mxCell>
        <mxCell id="Yd3ec5MEqcawKA09kIlU-28" value="IdEvento" style="text;html=1;align=center;verticalAlign=middle;whiteSpace=wrap;rounded=0;" parent="1" vertex="1">
          <mxGeometry x="445" y="290" width="60" height="30" as="geometry" />
        </mxCell>
        <mxCell id="Yd3ec5MEqcawKA09kIlU-29" value="" style="endArrow=none;html=1;rounded=0;" parent="1" edge="1">
          <mxGeometry width="50" height="50" relative="1" as="geometry">
            <mxPoint x="594.66" y="225" as="sourcePoint" />
            <mxPoint x="594.66" y="205" as="targetPoint" />
            <Array as="points">
              <mxPoint x="594.66" y="215" />
            </Array>
          </mxGeometry>
        </mxCell>
        <mxCell id="Yd3ec5MEqcawKA09kIlU-30" value="" style="ellipse;whiteSpace=wrap;html=1;aspect=fixed;" parent="1" vertex="1">
          <mxGeometry x="590" y="225" width="10" height="10" as="geometry" />
        </mxCell>
        <mxCell id="Yd3ec5MEqcawKA09kIlU-31" value="Username" style="text;html=1;align=center;verticalAlign=middle;whiteSpace=wrap;rounded=0;" parent="1" vertex="1">
          <mxGeometry x="565" y="225" width="60" height="30" as="geometry" />
        </mxCell>
        <mxCell id="Yd3ec5MEqcawKA09kIlU-32" value="" style="endArrow=none;html=1;rounded=0;" parent="1" edge="1">
          <mxGeometry width="50" height="50" relative="1" as="geometry">
            <mxPoint x="654.66" y="225" as="sourcePoint" />
            <mxPoint x="654.66" y="205" as="targetPoint" />
            <Array as="points">
              <mxPoint x="654.66" y="215" />
            </Array>
          </mxGeometry>
        </mxCell>
        <mxCell id="Yd3ec5MEqcawKA09kIlU-33" value="" style="ellipse;whiteSpace=wrap;html=1;aspect=fixed;" parent="1" vertex="1">
          <mxGeometry x="650" y="225" width="10" height="10" as="geometry" />
        </mxCell>
        <mxCell id="Yd3ec5MEqcawKA09kIlU-34" value="" style="endArrow=none;html=1;rounded=0;" parent="1" edge="1">
          <mxGeometry width="50" height="50" relative="1" as="geometry">
            <mxPoint x="704.66" y="225" as="sourcePoint" />
            <mxPoint x="704.66" y="205" as="targetPoint" />
            <Array as="points">
              <mxPoint x="704.66" y="215" />
            </Array>
          </mxGeometry>
        </mxCell>
        <mxCell id="Yd3ec5MEqcawKA09kIlU-35" value="" style="ellipse;whiteSpace=wrap;html=1;aspect=fixed;" parent="1" vertex="1">
          <mxGeometry x="700" y="225" width="10" height="10" as="geometry" />
        </mxCell>
        <mxCell id="Yd3ec5MEqcawKA09kIlU-36" value="Nome" style="text;html=1;align=center;verticalAlign=middle;whiteSpace=wrap;rounded=0;" parent="1" vertex="1">
          <mxGeometry x="625" y="225" width="60" height="30" as="geometry" />
        </mxCell>
        <mxCell id="Yd3ec5MEqcawKA09kIlU-37" value="Cognome" style="text;html=1;align=center;verticalAlign=middle;whiteSpace=wrap;rounded=0;" parent="1" vertex="1">
          <mxGeometry x="675" y="225" width="60" height="30" as="geometry" />
        </mxCell>
        <mxCell id="Yd3ec5MEqcawKA09kIlU-40" value="" style="ellipse;whiteSpace=wrap;html=1;aspect=fixed;" parent="1" vertex="1">
          <mxGeometry x="680" y="105" width="10" height="10" as="geometry" />
        </mxCell>
        <mxCell id="Yd3ec5MEqcawKA09kIlU-41" value="Password" style="text;html=1;align=center;verticalAlign=middle;whiteSpace=wrap;rounded=0;" parent="1" vertex="1">
          <mxGeometry x="655" y="75" width="60" height="30" as="geometry" />
        </mxCell>
        <mxCell id="Yd3ec5MEqcawKA09kIlU-42" value="" style="ellipse;whiteSpace=wrap;html=1;aspect=fixed;fillColor=#000000;" parent="1" vertex="1">
          <mxGeometry x="630" y="105" width="10" height="10" as="geometry" />
        </mxCell>
        <mxCell id="Yd3ec5MEqcawKA09kIlU-43" value="Email" style="text;html=1;align=center;verticalAlign=middle;whiteSpace=wrap;rounded=0;" parent="1" vertex="1">
          <mxGeometry x="605" y="75" width="60" height="30" as="geometry" />
        </mxCell>
        <mxCell id="Yd3ec5MEqcawKA09kIlU-44" value="" style="endArrow=none;html=1;rounded=0;entryX=0.5;entryY=1;entryDx=0;entryDy=0;exitX=0.592;exitY=-0.01;exitDx=0;exitDy=0;exitPerimeter=0;" parent="1" source="Yd3ec5MEqcawKA09kIlU-20" target="Yd3ec5MEqcawKA09kIlU-40" edge="1">
          <mxGeometry width="50" height="50" relative="1" as="geometry">
            <mxPoint x="710" y="175" as="sourcePoint" />
            <mxPoint x="760" y="125" as="targetPoint" />
          </mxGeometry>
        </mxCell>
        <mxCell id="Yd3ec5MEqcawKA09kIlU-45" value="" style="endArrow=none;html=1;rounded=0;entryX=0.5;entryY=1;entryDx=0;entryDy=0;exitX=0.281;exitY=-0.01;exitDx=0;exitDy=0;exitPerimeter=0;" parent="1" source="Yd3ec5MEqcawKA09kIlU-20" target="Yd3ec5MEqcawKA09kIlU-42" edge="1">
          <mxGeometry width="50" height="50" relative="1" as="geometry">
            <mxPoint x="710" y="175" as="sourcePoint" />
            <mxPoint x="760" y="125" as="targetPoint" />
          </mxGeometry>
        </mxCell>
        <mxCell id="Yd3ec5MEqcawKA09kIlU-46" value="POST" style="rounded=0;whiteSpace=wrap;html=1;" parent="1" vertex="1">
          <mxGeometry x="700" y="350" width="120" height="60" as="geometry" />
        </mxCell>
        <mxCell id="Yd3ec5MEqcawKA09kIlU-47" value="Voto" style="text;html=1;align=center;verticalAlign=middle;whiteSpace=wrap;rounded=0;" parent="1" vertex="1">
          <mxGeometry x="690" y="440" width="60" height="30" as="geometry" />
        </mxCell>
        <mxCell id="Yd3ec5MEqcawKA09kIlU-49" value="Data" style="text;html=1;align=center;verticalAlign=middle;whiteSpace=wrap;rounded=0;" parent="1" vertex="1">
          <mxGeometry x="840" y="347.5" width="60" height="30" as="geometry" />
        </mxCell>
        <mxCell id="Yd3ec5MEqcawKA09kIlU-52" value="" style="endArrow=none;html=1;rounded=0;" parent="1" source="Yd3ec5MEqcawKA09kIlU-53" edge="1">
          <mxGeometry width="50" height="50" relative="1" as="geometry">
            <mxPoint x="719.66" y="430" as="sourcePoint" />
            <mxPoint x="719.66" y="410" as="targetPoint" />
            <Array as="points">
              <mxPoint x="719.66" y="420" />
            </Array>
          </mxGeometry>
        </mxCell>
        <mxCell id="Yd3ec5MEqcawKA09kIlU-53" value="" style="ellipse;whiteSpace=wrap;html=1;aspect=fixed;" parent="1" vertex="1">
          <mxGeometry x="715" y="430" width="10" height="10" as="geometry" />
        </mxCell>
        <mxCell id="Yd3ec5MEqcawKA09kIlU-54" value="" style="endArrow=none;html=1;rounded=0;" parent="1" edge="1">
          <mxGeometry width="50" height="50" relative="1" as="geometry">
            <mxPoint x="759.66" y="430" as="sourcePoint" />
            <mxPoint x="759.66" y="410" as="targetPoint" />
            <Array as="points">
              <mxPoint x="759.66" y="420" />
            </Array>
          </mxGeometry>
        </mxCell>
        <mxCell id="Yd3ec5MEqcawKA09kIlU-55" value="" style="ellipse;whiteSpace=wrap;html=1;aspect=fixed;" parent="1" vertex="1">
          <mxGeometry x="755" y="430" width="10" height="10" as="geometry" />
        </mxCell>
        <mxCell id="Yd3ec5MEqcawKA09kIlU-56" value="ARTISTA" style="rounded=0;whiteSpace=wrap;html=1;" parent="1" vertex="1">
          <mxGeometry x="65" y="340" width="120" height="60" as="geometry" />
        </mxCell>
        <mxCell id="Yd3ec5MEqcawKA09kIlU-57" value="NomeArtista" style="text;html=1;align=center;verticalAlign=middle;whiteSpace=wrap;rounded=0;" parent="1" vertex="1">
          <mxGeometry x="-60" y="355" width="60" height="30" as="geometry" />
        </mxCell>
        <mxCell id="Yd3ec5MEqcawKA09kIlU-58" value="CognomeArtista" style="text;html=1;align=center;verticalAlign=middle;resizable=0;points=[];autosize=1;strokeColor=none;fillColor=none;" parent="1" vertex="1">
          <mxGeometry x="-100" y="380" width="110" height="30" as="geometry" />
        </mxCell>
        <mxCell id="Yd3ec5MEqcawKA09kIlU-59" value="&lt;div&gt;NomeArte&lt;/div&gt;" style="text;html=1;align=center;verticalAlign=middle;whiteSpace=wrap;rounded=0;" parent="1" vertex="1">
          <mxGeometry x="-60" y="327.5" width="60" height="30" as="geometry" />
        </mxCell>
        <mxCell id="Yd3ec5MEqcawKA09kIlU-60" value="" style="ellipse;whiteSpace=wrap;html=1;aspect=fixed;fillColor=#000000;" parent="1" vertex="1">
          <mxGeometry x="10" y="340" width="10" height="10" as="geometry" />
        </mxCell>
        <mxCell id="Yd3ec5MEqcawKA09kIlU-61" value="" style="endArrow=none;html=1;rounded=0;entryX=0;entryY=0.562;entryDx=0;entryDy=0;entryPerimeter=0;exitX=1;exitY=0.5;exitDx=0;exitDy=0;" parent="1" source="Yd3ec5MEqcawKA09kIlU-60" edge="1">
          <mxGeometry width="50" height="50" relative="1" as="geometry">
            <mxPoint x="30" y="345.33000000000004" as="sourcePoint" />
            <mxPoint x="65" y="344.66999999999996" as="targetPoint" />
          </mxGeometry>
        </mxCell>
        <mxCell id="Yd3ec5MEqcawKA09kIlU-62" value="" style="ellipse;whiteSpace=wrap;html=1;aspect=fixed;" parent="1" vertex="1">
          <mxGeometry x="10" y="365" width="10" height="10" as="geometry" />
        </mxCell>
        <mxCell id="Yd3ec5MEqcawKA09kIlU-63" value="" style="endArrow=none;html=1;rounded=0;entryX=0;entryY=0.562;entryDx=0;entryDy=0;entryPerimeter=0;exitX=1;exitY=0.5;exitDx=0;exitDy=0;" parent="1" source="Yd3ec5MEqcawKA09kIlU-62" edge="1">
          <mxGeometry width="50" height="50" relative="1" as="geometry">
            <mxPoint x="30" y="370.33000000000004" as="sourcePoint" />
            <mxPoint x="65" y="369.66999999999996" as="targetPoint" />
          </mxGeometry>
        </mxCell>
        <mxCell id="Yd3ec5MEqcawKA09kIlU-64" value="" style="ellipse;whiteSpace=wrap;html=1;aspect=fixed;" parent="1" vertex="1">
          <mxGeometry x="10" y="390" width="10" height="10" as="geometry" />
        </mxCell>
        <mxCell id="Yd3ec5MEqcawKA09kIlU-65" value="" style="endArrow=none;html=1;rounded=0;entryX=0;entryY=0.562;entryDx=0;entryDy=0;entryPerimeter=0;exitX=1;exitY=0.5;exitDx=0;exitDy=0;" parent="1" source="Yd3ec5MEqcawKA09kIlU-64" edge="1">
          <mxGeometry width="50" height="50" relative="1" as="geometry">
            <mxPoint x="30" y="395.33000000000004" as="sourcePoint" />
            <mxPoint x="65" y="394.66999999999996" as="targetPoint" />
          </mxGeometry>
        </mxCell>
        <mxCell id="Yd3ec5MEqcawKA09kIlU-66" value="Partecipazione" style="rhombus;whiteSpace=wrap;html=1;fontSize=10;" parent="1" vertex="1">
          <mxGeometry x="250" y="345" width="110" height="35" as="geometry" />
        </mxCell>
        <mxCell id="Yd3ec5MEqcawKA09kIlU-68" value="" style="endArrow=none;html=1;rounded=0;entryX=0;entryY=0.25;entryDx=0;entryDy=0;exitX=1;exitY=0.5;exitDx=0;exitDy=0;" parent="1" source="Yd3ec5MEqcawKA09kIlU-66" target="Yd3ec5MEqcawKA09kIlU-3" edge="1">
          <mxGeometry width="50" height="50" relative="1" as="geometry">
            <mxPoint x="350" y="360" as="sourcePoint" />
            <mxPoint x="400" y="310" as="targetPoint" />
          </mxGeometry>
        </mxCell>
        <mxCell id="Yd3ec5MEqcawKA09kIlU-69" value="" style="endArrow=none;html=1;rounded=0;exitX=0;exitY=0.5;exitDx=0;exitDy=0;entryX=1.003;entryY=0.376;entryDx=0;entryDy=0;entryPerimeter=0;" parent="1" source="Yd3ec5MEqcawKA09kIlU-66" target="Yd3ec5MEqcawKA09kIlU-56" edge="1">
          <mxGeometry width="50" height="50" relative="1" as="geometry">
            <mxPoint x="215" y="362.5" as="sourcePoint" />
            <mxPoint x="430" y="260" as="targetPoint" />
          </mxGeometry>
        </mxCell>
        <mxCell id="Yd3ec5MEqcawKA09kIlU-70" value="0,N" style="text;html=1;align=center;verticalAlign=middle;whiteSpace=wrap;rounded=0;" parent="1" vertex="1">
          <mxGeometry x="170" y="357.5" width="60" height="30" as="geometry" />
        </mxCell>
        <mxCell id="Yd3ec5MEqcawKA09kIlU-71" value="1,N" style="text;html=1;align=center;verticalAlign=middle;whiteSpace=wrap;rounded=0;" parent="1" vertex="1">
          <mxGeometry x="370" y="357.5" width="60" height="30" as="geometry" />
        </mxCell>
        <mxCell id="Yd3ec5MEqcawKA09kIlU-72" value="Categorizzazione" style="rhombus;whiteSpace=wrap;html=1;fontSize=10;" parent="1" vertex="1">
          <mxGeometry x="372" y="255" width="115" height="35" as="geometry" />
        </mxCell>
        <mxCell id="Yd3ec5MEqcawKA09kIlU-73" value="" style="endArrow=none;html=1;rounded=0;exitX=0.5;exitY=1;exitDx=0;exitDy=0;entryX=0.098;entryY=-0.007;entryDx=0;entryDy=0;entryPerimeter=0;" parent="1" source="Yd3ec5MEqcawKA09kIlU-72" target="Yd3ec5MEqcawKA09kIlU-3" edge="1">
          <mxGeometry width="50" height="50" relative="1" as="geometry">
            <mxPoint x="440" y="310" as="sourcePoint" />
            <mxPoint x="460" y="340" as="targetPoint" />
          </mxGeometry>
        </mxCell>
        <mxCell id="Yd3ec5MEqcawKA09kIlU-74" value="" style="endArrow=none;html=1;rounded=0;exitX=0.5;exitY=0;exitDx=0;exitDy=0;entryX=0.971;entryY=1.002;entryDx=0;entryDy=0;entryPerimeter=0;" parent="1" source="Yd3ec5MEqcawKA09kIlU-72" target="Yd3ec5MEqcawKA09kIlU-13" edge="1">
          <mxGeometry width="50" height="50" relative="1" as="geometry">
            <mxPoint x="440" y="310" as="sourcePoint" />
            <mxPoint x="410" y="220" as="targetPoint" />
          </mxGeometry>
        </mxCell>
        <mxCell id="Yd3ec5MEqcawKA09kIlU-75" value="0,N" style="text;html=1;align=center;verticalAlign=middle;whiteSpace=wrap;rounded=0;" parent="1" vertex="1">
          <mxGeometry x="385" y="195" width="60" height="30" as="geometry" />
        </mxCell>
        <mxCell id="Yd3ec5MEqcawKA09kIlU-76" value="1,1" style="text;html=1;align=center;verticalAlign=middle;whiteSpace=wrap;rounded=0;" parent="1" vertex="1">
          <mxGeometry x="387" y="317" width="60" height="30" as="geometry" />
        </mxCell>
        <mxCell id="Yd3ec5MEqcawKA09kIlU-77" value="&lt;font size=&quot;1&quot;&gt;Preferenze&lt;/font&gt;" style="rhombus;whiteSpace=wrap;html=1;" parent="1" vertex="1">
          <mxGeometry x="455" y="147.5" width="110" height="35" as="geometry" />
        </mxCell>
        <mxCell id="Yd3ec5MEqcawKA09kIlU-78" value="" style="endArrow=none;html=1;rounded=0;entryX=0;entryY=0.5;entryDx=0;entryDy=0;exitX=1;exitY=0.5;exitDx=0;exitDy=0;" parent="1" source="Yd3ec5MEqcawKA09kIlU-13" target="Yd3ec5MEqcawKA09kIlU-77" edge="1">
          <mxGeometry width="50" height="50" relative="1" as="geometry">
            <mxPoint x="440" y="170" as="sourcePoint" />
            <mxPoint x="490" y="140" as="targetPoint" />
          </mxGeometry>
        </mxCell>
        <mxCell id="Yd3ec5MEqcawKA09kIlU-79" value="" style="endArrow=none;html=1;rounded=0;entryX=0.75;entryY=1;entryDx=0;entryDy=0;exitX=1;exitY=0.5;exitDx=0;exitDy=0;" parent="1" source="Yd3ec5MEqcawKA09kIlU-77" target="Yd3ec5MEqcawKA09kIlU-81" edge="1">
          <mxGeometry width="50" height="50" relative="1" as="geometry">
            <mxPoint x="440" y="190" as="sourcePoint" />
            <mxPoint x="490" y="140" as="targetPoint" />
          </mxGeometry>
        </mxCell>
        <mxCell id="Yd3ec5MEqcawKA09kIlU-81" value="1,N" style="text;html=1;align=center;verticalAlign=middle;whiteSpace=wrap;rounded=0;" parent="1" vertex="1">
          <mxGeometry x="545" y="135" width="60" height="30" as="geometry" />
        </mxCell>
        <mxCell id="Yd3ec5MEqcawKA09kIlU-82" value="0,N" style="text;html=1;align=center;verticalAlign=middle;whiteSpace=wrap;rounded=0;" parent="1" vertex="1">
          <mxGeometry x="425" y="130" width="60" height="30" as="geometry" />
        </mxCell>
        <mxCell id="Yd3ec5MEqcawKA09kIlU-83" value="" style="endArrow=none;html=1;rounded=0;entryX=1;entryY=0.5;entryDx=0;entryDy=0;exitX=0.5;exitY=0;exitDx=0;exitDy=0;" parent="1" source="Yd3ec5MEqcawKA09kIlU-84" target="Yd3ec5MEqcawKA09kIlU-20" edge="1">
          <mxGeometry width="50" height="50" relative="1" as="geometry">
            <mxPoint x="770" y="257.5" as="sourcePoint" />
            <mxPoint x="770" y="202.5" as="targetPoint" />
            <Array as="points">
              <mxPoint x="790" y="210" />
              <mxPoint x="790" y="170" />
            </Array>
          </mxGeometry>
        </mxCell>
        <mxCell id="Yd3ec5MEqcawKA09kIlU-84" value="Pubblicazione" style="rhombus;whiteSpace=wrap;html=1;fontSize=10;" parent="1" vertex="1">
          <mxGeometry x="735" y="250" width="110" height="35" as="geometry" />
        </mxCell>
        <mxCell id="Yd3ec5MEqcawKA09kIlU-85" value="" style="endArrow=none;html=1;rounded=0;entryX=0.5;entryY=1;entryDx=0;entryDy=0;exitX=0.75;exitY=0;exitDx=0;exitDy=0;" parent="1" source="Yd3ec5MEqcawKA09kIlU-46" target="Yd3ec5MEqcawKA09kIlU-84" edge="1">
          <mxGeometry width="50" height="50" relative="1" as="geometry">
            <mxPoint x="460" y="310" as="sourcePoint" />
            <mxPoint x="510" y="260" as="targetPoint" />
          </mxGeometry>
        </mxCell>
        <mxCell id="Yd3ec5MEqcawKA09kIlU-86" value="0,N" style="text;html=1;align=center;verticalAlign=middle;whiteSpace=wrap;rounded=0;" parent="1" vertex="1">
          <mxGeometry x="740" y="170" width="60" height="30" as="geometry" />
        </mxCell>
        <mxCell id="Yd3ec5MEqcawKA09kIlU-87" value="1,1" style="text;html=1;align=center;verticalAlign=middle;whiteSpace=wrap;rounded=0;" parent="1" vertex="1">
          <mxGeometry x="780" y="320" width="60" height="30" as="geometry" />
        </mxCell>
        <mxCell id="Yd3ec5MEqcawKA09kIlU-88" value="Recensione" style="rhombus;whiteSpace=wrap;html=1;fontSize=10;" parent="1" vertex="1">
          <mxGeometry x="585" y="360" width="80" height="40" as="geometry" />
        </mxCell>
        <mxCell id="Yd3ec5MEqcawKA09kIlU-89" value="" style="endArrow=none;html=1;rounded=0;entryX=0;entryY=0.5;entryDx=0;entryDy=0;exitX=1;exitY=0.5;exitDx=0;exitDy=0;" parent="1" source="Yd3ec5MEqcawKA09kIlU-3" target="Yd3ec5MEqcawKA09kIlU-88" edge="1">
          <mxGeometry width="50" height="50" relative="1" as="geometry">
            <mxPoint x="565" y="375" as="sourcePoint" />
            <mxPoint x="615" y="325" as="targetPoint" />
          </mxGeometry>
        </mxCell>
        <mxCell id="Yd3ec5MEqcawKA09kIlU-90" value="" style="endArrow=none;html=1;rounded=0;entryX=0;entryY=0.5;entryDx=0;entryDy=0;exitX=1;exitY=0.5;exitDx=0;exitDy=0;" parent="1" source="Yd3ec5MEqcawKA09kIlU-88" target="Yd3ec5MEqcawKA09kIlU-46" edge="1">
          <mxGeometry width="50" height="50" relative="1" as="geometry">
            <mxPoint x="460" y="310" as="sourcePoint" />
            <mxPoint x="510" y="260" as="targetPoint" />
          </mxGeometry>
        </mxCell>
        <mxCell id="Yd3ec5MEqcawKA09kIlU-91" value="0,N" style="text;html=1;align=center;verticalAlign=middle;whiteSpace=wrap;rounded=0;" parent="1" vertex="1">
          <mxGeometry x="550" y="355" width="60" height="30" as="geometry" />
        </mxCell>
        <mxCell id="Yd3ec5MEqcawKA09kIlU-92" value="1,1" style="text;html=1;align=center;verticalAlign=middle;whiteSpace=wrap;rounded=0;" parent="1" vertex="1">
          <mxGeometry x="658" y="355" width="60" height="30" as="geometry" />
        </mxCell>
        <mxCell id="938fc45sM32lBM4DSNiJ-3" style="edgeStyle=orthogonalEdgeStyle;rounded=0;orthogonalLoop=1;jettySize=auto;html=1;strokeColor=default;endArrow=none;startFill=0;exitX=0;exitY=0.5;exitDx=0;exitDy=0;" parent="1" source="Yd3ec5MEqcawKA09kIlU-96" edge="1">
          <mxGeometry relative="1" as="geometry">
            <mxPoint x="675" y="390" as="targetPoint" />
            <mxPoint x="805" y="315" as="sourcePoint" />
            <Array as="points">
              <mxPoint x="675" y="315" />
            </Array>
          </mxGeometry>
        </mxCell>
        <mxCell id="Yd3ec5MEqcawKA09kIlU-96" value="" style="ellipse;whiteSpace=wrap;html=1;aspect=fixed;gradientColor=none;fillColor=#000000;" parent="1" vertex="1">
          <mxGeometry x="810" y="310" width="10" height="10" as="geometry" />
        </mxCell>
        <mxCell id="n2EDyQ87mNhJLRuswoGE-5" value="" style="ellipse;whiteSpace=wrap;html=1;aspect=fixed;" parent="1" vertex="1">
          <mxGeometry x="840" y="357.5" width="10" height="10" as="geometry" />
        </mxCell>
        <mxCell id="n2EDyQ87mNhJLRuswoGE-7" style="edgeStyle=orthogonalEdgeStyle;rounded=0;orthogonalLoop=1;jettySize=auto;html=1;exitX=0;exitY=0.5;exitDx=0;exitDy=0;entryX=1;entryY=0.224;entryDx=0;entryDy=0;entryPerimeter=0;endArrow=none;endFill=1;startFill=0;" parent="1" source="n2EDyQ87mNhJLRuswoGE-5" target="Yd3ec5MEqcawKA09kIlU-46" edge="1">
          <mxGeometry relative="1" as="geometry" />
        </mxCell>
        <mxCell id="n2EDyQ87mNhJLRuswoGE-8" value="Commento" style="text;html=1;align=center;verticalAlign=middle;whiteSpace=wrap;rounded=0;" parent="1" vertex="1">
          <mxGeometry x="755" y="440" width="60" height="30" as="geometry" />
        </mxCell>
        <mxCell id="n2EDyQ87mNhJLRuswoGE-9" value="" style="ellipse;whiteSpace=wrap;html=1;aspect=fixed;" parent="1" vertex="1">
          <mxGeometry x="840" y="380" width="10" height="10" as="geometry" />
        </mxCell>
        <mxCell id="n2EDyQ87mNhJLRuswoGE-11" style="edgeStyle=orthogonalEdgeStyle;rounded=0;orthogonalLoop=1;jettySize=auto;html=1;exitX=0;exitY=0.5;exitDx=0;exitDy=0;entryX=1;entryY=0.583;entryDx=0;entryDy=0;entryPerimeter=0;endArrow=none;startFill=0;" parent="1" source="n2EDyQ87mNhJLRuswoGE-9" target="Yd3ec5MEqcawKA09kIlU-46" edge="1">
          <mxGeometry relative="1" as="geometry" />
        </mxCell>
        <mxCell id="n2EDyQ87mNhJLRuswoGE-12" value="Titolo" style="text;html=1;align=center;verticalAlign=middle;whiteSpace=wrap;rounded=0;" parent="1" vertex="1">
          <mxGeometry x="840" y="370" width="60" height="30" as="geometry" />
        </mxCell>
        <mxCell id="nyTE3nNk2qfu4w0mPA65-1" value="&lt;h1 style=&quot;margin-top: 0px;&quot;&gt;Modello Logico Relazionale&lt;/h1&gt;&lt;p&gt;&lt;font style=&quot;font-size: 14px;&quot;&gt;&lt;b&gt;CATEGORIA(&lt;/b&gt;&lt;u&gt;CodCategoria&lt;/u&gt;, NomeCategoria&lt;b&gt;)&lt;/b&gt;&lt;b&gt;&lt;/b&gt;&lt;/font&gt;&lt;/p&gt;&lt;p&gt;&lt;font style=&quot;font-size: 14px;&quot;&gt;&lt;b&gt;ARTISTA(&lt;/b&gt;&lt;u&gt;NomeArte&lt;/u&gt;, NomeArtista, CognomeArtista&lt;b&gt;)&lt;/b&gt;&lt;/font&gt;&lt;/p&gt;&lt;p&gt;&lt;font style=&quot;font-size: 14px;&quot;&gt;&lt;b&gt;PARTECIPAZIONE(&lt;/b&gt;&lt;u&gt;&amp;lt;ArtistaPartecipazione&amp;gt;&lt;/u&gt;, &lt;u&gt;&amp;lt;EventoPartecipazione&amp;gt;&lt;/u&gt;&lt;/font&gt;&lt;b style=&quot;font-size: 14px; background-color: transparent; color: light-dark(rgb(0, 0, 0), rgb(255, 255, 255));&quot;&gt;)&lt;/b&gt;&lt;/p&gt;&lt;p&gt;&lt;b style=&quot;font-size: 14px;&quot;&gt;LUOGO(&lt;/b&gt;&lt;u style=&quot;font-size: 14px;&quot;&gt;CodiceProvincia&lt;/u&gt;&lt;span style=&quot;font-size: 14px;&quot;&gt;, ProvinciaEstesa, Regione&lt;/span&gt;&lt;b style=&quot;font-size: 14px;&quot;&gt;)&lt;/b&gt;&lt;b style=&quot;font-size: 14px; background-color: transparent; color: light-dark(rgb(0, 0, 0), rgb(255, 255, 255));&quot;&gt;&lt;/b&gt;&lt;/p&gt;&lt;p&gt;&lt;font style=&quot;font-size: 14px;&quot;&gt;&lt;b&gt;UTENTE(&lt;/b&gt;&lt;u&gt;Email&lt;/u&gt;, Password, Username, NomeU, CognomeU,&amp;lt;Residenza&amp;gt;&lt;b&gt;)&lt;/b&gt;&lt;/font&gt;&lt;/p&gt;&lt;p&gt;&lt;span style=&quot;font-size: 14px;&quot;&gt;&lt;b&gt;PREFERENZA(&lt;/b&gt;&lt;u&gt;&amp;lt;UtentePreferenza&amp;gt;&lt;/u&gt;, &lt;u&gt;&amp;lt;CategoriaPreferenza&amp;gt;&lt;/u&gt;&lt;b&gt;)&lt;/b&gt;&lt;/span&gt;&lt;/p&gt;&lt;p&gt;&lt;font style=&quot;font-size: 14px;&quot;&gt;&lt;b&gt;EVENTO(&lt;/b&gt;&lt;u&gt;IdEvento&lt;/u&gt;, TitoloEvento, DataEvento, &amp;lt;Provincia&amp;gt;, Descrizione,&amp;lt;Categoria&amp;gt;&lt;b&gt;)&lt;/b&gt;&lt;/font&gt;&lt;/p&gt;&lt;p&gt;&lt;font style=&quot;font-size: 14px;&quot;&gt;&lt;b&gt;POST(&lt;/b&gt;&lt;u&gt;&amp;lt;Utente&amp;gt;&lt;/u&gt;,&amp;nbsp; &lt;u&gt;&amp;lt;Evento&amp;gt;&lt;/u&gt;, TitoloPost, DataPost, Voto, Commento&lt;b&gt;)&lt;br&gt;&lt;/b&gt;&lt;/font&gt;&lt;/p&gt;&lt;p&gt;&lt;br&gt;&lt;/p&gt;&lt;p&gt;&lt;br&gt;&lt;/p&gt;" style="text;html=1;whiteSpace=wrap;overflow=hidden;rounded=0;" parent="1" vertex="1">
          <mxGeometry x="-660" y="77.5" width="630" height="290" as="geometry" />
        </mxCell>
        <mxCell id="8mOL9f4rSlKWJENNrVKu-2" value="LUOGO" style="whiteSpace=wrap;html=1;align=center;" parent="1" vertex="1">
          <mxGeometry x="415" y="530" width="150" height="70" as="geometry" />
        </mxCell>
        <mxCell id="8mOL9f4rSlKWJENNrVKu-4" value="Ubicazione" style="rhombus;whiteSpace=wrap;html=1;fontSize=10;" parent="1" vertex="1">
          <mxGeometry x="435" y="450" width="110" height="35" as="geometry" />
        </mxCell>
        <mxCell id="8mOL9f4rSlKWJENNrVKu-7" value="" style="endArrow=none;html=1;rounded=0;entryX=0.5;entryY=0;entryDx=0;entryDy=0;exitX=0.5;exitY=1;exitDx=0;exitDy=0;" parent="1" source="8mOL9f4rSlKWJENNrVKu-4" target="8mOL9f4rSlKWJENNrVKu-2" edge="1">
          <mxGeometry width="50" height="50" relative="1" as="geometry">
            <mxPoint x="489" y="485" as="sourcePoint" />
            <mxPoint x="490" y="536" as="targetPoint" />
          </mxGeometry>
        </mxCell>
        <mxCell id="8mOL9f4rSlKWJENNrVKu-8" value="" style="endArrow=none;html=1;rounded=0;entryX=0.5;entryY=0;entryDx=0;entryDy=0;" parent="1" source="Yd3ec5MEqcawKA09kIlU-3" target="8mOL9f4rSlKWJENNrVKu-4" edge="1">
          <mxGeometry width="50" height="50" relative="1" as="geometry">
            <mxPoint x="489" y="399" as="sourcePoint" />
            <mxPoint x="490" y="450" as="targetPoint" />
          </mxGeometry>
        </mxCell>
        <mxCell id="8mOL9f4rSlKWJENNrVKu-12" value="" style="endArrow=none;html=1;rounded=0;" parent="1" edge="1">
          <mxGeometry width="50" height="50" relative="1" as="geometry">
            <mxPoint x="417.15999999999997" y="620" as="sourcePoint" />
            <mxPoint x="417.15999999999997" y="600" as="targetPoint" />
            <Array as="points">
              <mxPoint x="417.15999999999997" y="610" />
            </Array>
          </mxGeometry>
        </mxCell>
        <mxCell id="8mOL9f4rSlKWJENNrVKu-13" value="" style="ellipse;whiteSpace=wrap;html=1;aspect=fixed;gradientColor=none;fillColor=#000000;" parent="1" vertex="1">
          <mxGeometry x="412.5" y="620" width="10" height="10" as="geometry" />
        </mxCell>
        <mxCell id="8mOL9f4rSlKWJENNrVKu-14" value="" style="endArrow=none;html=1;rounded=0;" parent="1" edge="1">
          <mxGeometry width="50" height="50" relative="1" as="geometry">
            <mxPoint x="489.65999999999997" y="620" as="sourcePoint" />
            <mxPoint x="489.65999999999997" y="600" as="targetPoint" />
            <Array as="points">
              <mxPoint x="489.65999999999997" y="610" />
            </Array>
          </mxGeometry>
        </mxCell>
        <mxCell id="8mOL9f4rSlKWJENNrVKu-15" value="" style="ellipse;whiteSpace=wrap;html=1;aspect=fixed;" parent="1" vertex="1">
          <mxGeometry x="485" y="620" width="10" height="10" as="geometry" />
        </mxCell>
        <mxCell id="8mOL9f4rSlKWJENNrVKu-16" value="" style="endArrow=none;html=1;rounded=0;" parent="1" edge="1">
          <mxGeometry width="50" height="50" relative="1" as="geometry">
            <mxPoint x="554.66" y="620" as="sourcePoint" />
            <mxPoint x="554.66" y="600" as="targetPoint" />
            <Array as="points">
              <mxPoint x="554.66" y="610" />
            </Array>
          </mxGeometry>
        </mxCell>
        <mxCell id="8mOL9f4rSlKWJENNrVKu-17" value="" style="ellipse;whiteSpace=wrap;html=1;aspect=fixed;" parent="1" vertex="1">
          <mxGeometry x="550" y="620" width="10" height="10" as="geometry" />
        </mxCell>
        <mxCell id="8mOL9f4rSlKWJENNrVKu-20" value="CodiceProvincia" style="text;html=1;align=center;verticalAlign=middle;whiteSpace=wrap;rounded=0;" parent="1" vertex="1">
          <mxGeometry x="375" y="630" width="60" height="30" as="geometry" />
        </mxCell>
        <mxCell id="8mOL9f4rSlKWJENNrVKu-21" value="ProvinciaEstesa" style="text;html=1;align=center;verticalAlign=middle;whiteSpace=wrap;rounded=0;" parent="1" vertex="1">
          <mxGeometry x="470" y="630" width="60" height="30" as="geometry" />
        </mxCell>
        <mxCell id="8mOL9f4rSlKWJENNrVKu-22" value="Regione" style="text;html=1;align=center;verticalAlign=middle;whiteSpace=wrap;rounded=0;" parent="1" vertex="1">
          <mxGeometry x="550" y="630" width="60" height="30" as="geometry" />
        </mxCell>
        <mxCell id="8mOL9f4rSlKWJENNrVKu-23" value="0,N" style="text;html=1;align=center;verticalAlign=middle;whiteSpace=wrap;rounded=0;" parent="1" vertex="1">
          <mxGeometry x="475" y="500" width="60" height="30" as="geometry" />
        </mxCell>
        <mxCell id="8mOL9f4rSlKWJENNrVKu-24" value="1,1" style="text;html=1;align=center;verticalAlign=middle;whiteSpace=wrap;rounded=0;" parent="1" vertex="1">
          <mxGeometry x="475" y="415" width="60" height="30" as="geometry" />
        </mxCell>
        <mxCell id="8mOL9f4rSlKWJENNrVKu-25" value="Residenza" style="rhombus;whiteSpace=wrap;html=1;fontSize=10;" parent="1" vertex="1">
          <mxGeometry x="860" y="547.5" width="110" height="35" as="geometry" />
        </mxCell>
        <mxCell id="8mOL9f4rSlKWJENNrVKu-26" value="" style="endArrow=none;html=1;rounded=0;exitX=0.5;exitY=0;exitDx=0;exitDy=0;entryX=1.008;entryY=0.084;entryDx=0;entryDy=0;entryPerimeter=0;" parent="1" source="8mOL9f4rSlKWJENNrVKu-25" target="Yd3ec5MEqcawKA09kIlU-20" edge="1">
          <mxGeometry width="50" height="50" relative="1" as="geometry">
            <mxPoint x="800" y="260" as="sourcePoint" />
            <mxPoint x="820" y="110" as="targetPoint" />
            <Array as="points">
              <mxPoint x="915" y="141" />
            </Array>
          </mxGeometry>
        </mxCell>
        <mxCell id="8mOL9f4rSlKWJENNrVKu-28" value="" style="endArrow=none;html=1;rounded=0;exitX=0;exitY=0.5;exitDx=0;exitDy=0;entryX=1;entryY=0.5;entryDx=0;entryDy=0;" parent="1" source="8mOL9f4rSlKWJENNrVKu-25" target="8mOL9f4rSlKWJENNrVKu-2" edge="1">
          <mxGeometry width="50" height="50" relative="1" as="geometry">
            <mxPoint x="655" y="526.5" as="sourcePoint" />
            <mxPoint x="655" y="603.5" as="targetPoint" />
          </mxGeometry>
        </mxCell>
        <mxCell id="8mOL9f4rSlKWJENNrVKu-30" value="1,1" style="text;html=1;align=center;verticalAlign=middle;whiteSpace=wrap;rounded=0;" parent="1" vertex="1">
          <mxGeometry x="750" y="110" width="60" height="30" as="geometry" />
        </mxCell>
        <mxCell id="8mOL9f4rSlKWJENNrVKu-31" value="0,N" style="text;html=1;align=center;verticalAlign=middle;whiteSpace=wrap;rounded=0;" parent="1" vertex="1">
          <mxGeometry x="565" y="540" width="60" height="30" as="geometry" />
        </mxCell>
        <mxCell id="938fc45sM32lBM4DSNiJ-1" value="&lt;h1 style=&quot;margin-top: 0px;&quot;&gt;Regole di lettura&lt;/h1&gt;&lt;div&gt;Un artista può partecipare a più eventi.&lt;/div&gt;&lt;div&gt;Ad un evento deve partecipare almeno un artista.&lt;/div&gt;&lt;p&gt;Ogni evento è categorizzato da una categoria.&lt;br&gt;Una categorià può categorizzare più eventi.&lt;/p&gt;&lt;p&gt;Un evento è situato in un luogo.&lt;br&gt;Per ogni luogo potrebbero esserci situati più eventi.&lt;/p&gt;&lt;p&gt;Ogni categoria può essere preferita da più utenti.&lt;br&gt;Un utente può preferire più categorie.&lt;/p&gt;&lt;p&gt;Un utente è residente in un luogo.&lt;br&gt;Ogni luogo può avere più utenti residenti.&lt;/p&gt;&lt;p&gt;Un evento può essere recensito da più post.&lt;br&gt;Un post recensisce un evento.&lt;/p&gt;&lt;p&gt;Un utente può pubblicare più post.&lt;br&gt;Un post viene pubblicato da un utente.&lt;/p&gt;" style="text;html=1;whiteSpace=wrap;overflow=hidden;rounded=0;" parent="1" vertex="1">
          <mxGeometry x="-660" y="547.5" width="630" height="362.5" as="geometry" />
        </mxCell>
        <mxCell id="938fc45sM32lBM4DSNiJ-4" value="&lt;h1 style=&quot;margin-top: 0px;&quot;&gt;&lt;font style=&quot;font-size: 18px;&quot;&gt;Vincoli di integrità referenziale&lt;/font&gt;&lt;/h1&gt;&lt;div&gt;&lt;div&gt;- PARTECIPAZIONE(ArtistaPartecipaazione) ⊆ ARTISTA(NomeArte)&lt;/div&gt;&lt;/div&gt;&lt;div&gt;- PARTECIPAZIONE(EventoPartecipazione) ⊆ EVENTO(IdEvento)&lt;/div&gt;&lt;div&gt;- UTENTE(Residenza) ⊆ LUOGO(CodiceProvincia)&lt;/div&gt;&lt;div&gt;- PREFERENZA(UtentePreferenza) ⊆ UTENTE(Email)&lt;/div&gt;&lt;div&gt;- PREFERENZA(CategoriaPreferenza) ⊆ CATEGORIA(CodCategoria)&lt;/div&gt;&lt;div&gt;- EVENTO(Provincia) ⊆&amp;nbsp; LUOGO(CodiceProvincia)&lt;/div&gt;&lt;div&gt;- EVENTO(Categoria) ⊆ CATEGORIA(CodCategoria)&lt;/div&gt;&lt;div&gt;- POST(Utente) ⊆ UTENTE(Email)&lt;/div&gt;&lt;div&gt;- POST(Evento) ⊆ EVENTO(IdEvento)&lt;/div&gt;" style="text;html=1;whiteSpace=wrap;overflow=hidden;rounded=0;" parent="1" vertex="1">
          <mxGeometry x="-660" y="356" width="630" height="185" as="geometry" />
        </mxCell>
      </root>
    </mxGraphModel>
  </diagram>
</mxfile>
